<svg xmlns="http://www.w3.org/2000/svg" viewBox="0 0 32 32" width="32" height="32">
  <defs>
    <linearGradient id="g" x1="0" y1="0" x2="1" y2="1">
      <stop offset="0" stop-color="#8b5cf6"/>
      <stop offset="1" stop-color="#1a8cff"/>
    </linearGradient>
  </defs>
  <rect width="32" height="32" rx="8" fill="#0a0a0c"/>
  <rect x="3" y="3" width="26" height="26" rx="6" fill="url(#g)" opacity="0.18"/>
  <path d="M16 5c3.6 1.9 6.1 5.7 6.1 10.5 0 2.4-.7 4.6-1.8 6.4l2.2 4.3-4.3-1.5c-.7.3-1.4.4-2.2.4s-1.5-.1-2.2-.4l-4.3 1.5 2.2-4.3c-1.1-1.8-1.8-4-1.8-6.4C9.9 10.7 12.4 6.9 16 5Z" fill="url(#g)"/>
  <circle cx="16" cy="14" r="2.4" fill="#0a0a0c"/>
</svg>
